<svg xmlns="http://www.w3.org/2000/svg" xmlns:xlink="http://www.w3.org/1999/xlink" version="1.1" id="Layer_1" x="0px" y="0px" viewBox="0 0 260.9 191.1" style="enable-background:new 0 0 260.9 191.1;" xml:space="preserve" width="260.9"  height="191.1" >
<style type="text/css">
	.st0{fill:#808080;}
</style>
<g>
	<g>
		<g>
			<g>
				<path class="st0" d="M79.1,78.1C79.1,78.1,79.1,78.1,79.1,78.1c-1.4,0-2.7,0.5-3.7,1.5c-1,1-1.6,2.3-1.6,3.8v79.4      c0,2.9,2.4,5.3,5.3,5.3c12.3,0,33,2.6,47.2,17.5v-83c0-1-0.3-1.9-0.7-2.7C113.9,81,91.5,78.2,79.1,78.1z"/>
				<path class="st0" d="M187.1,162.8V83.4c0-1.4-0.6-2.8-1.6-3.8c-1-1-2.3-1.5-3.7-1.5c0,0,0,0,0,0c-12.3,0-34.8,2.9-46.5,21.7      c-0.5,0.8-0.7,1.7-0.7,2.7v83c14.2-14.9,34.9-17.5,47.2-17.5C184.7,168.1,187.1,165.7,187.1,162.8z"/>
				<path class="st0" d="M199.1,96.4h-3.8v66.3c0,7.4-6.1,13.5-13.5,13.5c-10.4,0-27.7,2.1-39.9,13.6c21.1-5.2,43.3-1.8,56,1.1      c1.6,0.4,3.2,0,4.5-1c1.3-1,2-2.5,2-4.1v-84.1C204.4,98.8,202,96.4,199.1,96.4z"/>
				<path class="st0" d="M65.6,162.8V96.4h-3.8c-2.9,0-5.3,2.4-5.3,5.3v84.1c0,1.6,0.7,3.1,2,4.1c1.3,1,2.9,1.4,4.5,1      c12.7-2.9,34.9-6.2,56-1.1c-12.2-11.5-29.4-13.6-39.9-13.6C71.7,176.3,65.6,170.2,65.6,162.8z"/>
			</g>
		</g>
	</g>
	<path class="st0" d="M23.3,184.2h11.3c4.7,0,8.4-3.8,8.4-8.4V86c0-4.7-3.8-8.4-8.4-8.4H23.3C10.4,77.6,0,88,0,100.9l0,60   C0,173.7,10.4,184.2,23.3,184.2z"/>
	<path class="st0" d="M237.6,184.2h-11.3c-4.7,0-8.4-3.8-8.4-8.4V86c0-4.7,3.8-8.4,8.4-8.4h11.3c12.9,0,23.3,10.4,23.3,23.3v60   C260.9,173.7,250.5,184.2,237.6,184.2z"/>
	<g>
		<path class="st0" d="M46.4,69.8c14.9-31.5,47-53.3,84.1-53.3c37.1,0,69.1,21.8,84.1,53.3h18C216.6,29,176.8,0,130.4,0    C84,0,44.3,29,28.4,69.8H46.4z"/>
	</g>
</g>
</svg>