<svg xmlns="http://www.w3.org/2000/svg" xmlns:xlink="http://www.w3.org/1999/xlink" version="1.1" id="Layer_1" x="0px" y="0px" viewBox="0 0 321.1 210.9" style="enable-background:new 0 0 321.1 210.9;" xml:space="preserve" width="321.1"  height="210.9" >
<style type="text/css">
	.st0{fill:#FFF;}
</style>
<g>
	<path class="st0" d="M107.8,75.9h-5.6c-4.4,0-7.6-3.6-7.6-7.6v-5.6c0-2-0.8-4-2-5.6c-0.4-0.4-0.4-0.4-0.4-0.4   c-1.6-1.6-3.6-2.4-6-2.4c-2.4,0-4.4,0.8-6,2.4c-1.6,1.6-2.4,3.6-2.4,6v5.6c0,4.4-3.6,7.6-7.6,7.6h-5.6c-2,0-4,0.8-5.6,2   c-0.4,0.4-0.4,0.4-0.4,0.4c-1.6,1.6-2.4,3.6-2.4,6c0,2.4,1.2,4.4,2.4,5.6c1.6,1.6,3.6,2.4,6,2.4h5.6c4.4,0,7.6,3.6,7.6,7.6v5.6   c0,2.4,0.8,4.4,2.4,6c1.6,1.6,3.6,2.4,6,2.4c2.4,0,4.4-0.8,6-2.4c1.6-1.6,2.4-3.6,2.4-6v-5.2c0-4.4,3.6-7.6,7.6-7.6h5.6   c2.4,0,4.4-0.8,6-2.4c1.6-1.6,2.4-3.6,2.4-6c0-2.4-0.8-4.4-2.4-6C112.2,76.7,110.2,75.9,107.8,75.9z"/>
	<path class="st0" d="M321,145.9c-0.8-18.4-4-38.8-8.8-58c-4.8-18.4-10.8-35.6-18-48.8c-28-49.2-58.4-41.6-94.8-32   c-11.6,2.8-24,6-36.8,7.2h-4c-12.8-1.2-25.2-4.4-36.8-7.2C85.4-2.1,55-10.1,27,39.5C19.8,52.7,13.4,69.9,9,88.3   c-4.8,19.2-8,39.6-8.8,58c-0.8,20.4,1.2,35.2,5.6,45.6c4.4,9.6,10.8,15.6,19.2,18c7.6,2,16.4,1.2,25.6-2.8   c15.6-6.4,33.6-20,51.2-36.4c12.4-12,35.6-18,58.8-18s46.4,6,58.8,18c17.6,16.4,35.6,30,51.2,36.4c9.2,3.6,18,4.8,25.6,2.8   c8-2.4,14.8-8,19.2-18.4C319.8,181.5,321.8,166.7,321,145.9z M123.8,100.7c-3.6,4-8.8,6.4-14.4,6.8c-0.4,5.6-3.2,10.4-6.8,14.4   c-4,4-10,6.8-16.4,6.8c-6.4,0-12-2.4-16.4-6.8c-4-3.6-6.4-8.8-6.8-14.4c-6-0.4-10.8-2.8-14.8-6.8s-6.8-10-6.8-16.4   c0-6.4,2.4-12,6.8-16.4l0.4-0.4c4-3.6,8.8-6,14.4-6.4c0.4-5.6,3.2-10.8,6.8-14.4c4-4,10-6.8,16.4-6.8c6.4,0,12,2.4,16.4,6.8   l0.4,0.4c3.6,3.6,6,8.8,6.4,14c5.6,0.4,10.4,3.2,14.4,6.8c4,4,6.8,10,6.8,16.4C130.6,90.7,128.2,96.3,123.8,100.7z M201.8,98.3   c-7.7,0-14-6.3-14-14c0-7.7,6.3-14,14-14s14,6.3,14,14C215.8,92,209.5,98.3,201.8,98.3z M230.2,126.7c-7.7,0-14-6.3-14-14   c0-7.7,6.3-14,14-14s14,6.3,14,14C244.2,120.4,237.9,126.7,230.2,126.7z M230.2,69.9c-7.7,0-14-6.3-14-14s6.3-14,14-14   s14,6.3,14,14S237.9,69.9,230.2,69.9z M258.6,98.3c-7.7,0-14-6.3-14-14c0-7.7,6.3-14,14-14c7.7,0,14,6.3,14,14   C272.6,92,266.3,98.3,258.6,98.3z"/>
</g>
</svg>