<svg xmlns:xlink="http://www.w3.org/1999/xlink" xmlns="http://www.w3.org/2000/svg" version="1.1" id="Capa_1" x="0" y="0" viewBox="0 0 460.298 366.31" xml:space="preserve" width="460.298"  height="366.31" >
  <style id="style2">.st0{}</style>
  <path class="st0" d="M230.15 73.945L65.987 209.28c0 .191-.048.472-.144.855-.094.38-.144.656-.144.852v137.041c0 4.948 1.809 9.236 5.426 12.847 3.616 3.613 7.898 5.431 12.847 5.431h109.63V256.67h73.097v109.64h109.629c4.948 0 9.236-1.814 12.847-5.435 3.617-3.607 5.432-7.898 5.432-12.847V210.987c0-.76-.104-1.334-.288-1.707z" id="path4" />
  <path class="st0" d="M457.123 178.444L394.6 126.482V9.995c0-2.663-.856-4.853-2.574-6.567-1.704-1.712-3.894-2.568-6.563-2.568h-54.816c-2.666 0-4.855.856-6.57 2.568-1.711 1.714-2.566 3.905-2.566 6.567v55.673L251.85 7.423C245.766 2.474 238.532 0 230.156 0c-8.375 0-15.608 2.474-21.698 7.423L3.173 178.444c-1.903 1.52-2.946 3.566-3.14 6.136-.193 2.568.472 4.811 1.997 6.713l17.7 21.128c1.526 1.712 3.522 2.759 5.997 3.142 2.285.192 4.57-.476 6.855-1.998L230.15 48.823l197.57 164.741c1.526 1.328 3.52 1.991 5.996 1.991h.858c2.47-.376 4.463-1.43 5.996-3.138l17.703-21.125c1.522-1.906 2.189-4.145 1.99-6.716-.194-2.563-1.241-4.609-3.14-6.132z" id="path6" />
</svg>