<svg xmlns="http://www.w3.org/2000/svg" xmlns:xlink="http://www.w3.org/1999/xlink" id="dino" x="0" y="0" viewBox="0 0 254.9 241.7" xml:space="preserve" width="254.9"  height="241.7" >
<style fill="#FFF">
                  .st3{fill:#000}
                  .st4{fill: #000}
                </style>
<path class="st0" d="M161.8 72.7l9.5 26.1s25.8 9.7 31.1 12.4c10.5 5.2 7.9 15.1 1.1 17.6-5 1.8-18.4-2.9-21.7-5.1 0 0 1.2 4 2.6 10.3-.3-.1-.6-.2-.9-.2-7.4-1.8-14.2 1.1-17.7 7.6-.1.1-.1.2-.2.3-3.3 6.3-3.3 14.8-3.3 20.9 0 .5 0 1.3.1 2.2 0 .6.1 1.6.1 2.7-.1 0-.1-.1-.2-.1-2.8-1.5-5.8-2.1-8.3-2.6-6.2-1-12.3-.3-18.1 2.2-4.5 1.9-8.4 4.9-11.8 8.8-1.6 1.8-3 3.8-4.2 6-.4-1.9-1-3.8-2.1-5.7-1.6-2.8-4.2-5.7-7.5-7.8.8-.5 1.7-1.2 2.5-2 1.1-1.1 2-2.4 2.8-3.8 1.4-2.6 2.2-5.5 2.2-8.2 0-3.2-1.4-6.5-3.8-9.4-.6-.7-1.3-1.5-2.1-2.2-3.4-3.1-9.1-6.3-14.6-5.9-2.6.2-5.1 1-7.3 2.3 3.8-5.9 6.9-12.8 7.8-15.9 0 0-14.2 7.8-19.4 5.2-5.2-2.6-10.5-12.3-.8-17.6 9.7-5.2 20.2-7.8 27.5-11.1 3.1-1.4 0-38.5 0-38.5S93.9-1.2 141.9.8c2.2.1 4.5 0 6.7-.2 13.3-1 55.5-2.8 68.3 15.6 15.2 21.9 1 46.1-10.2 53.9-9.5 6.6-29.2 8.8-42.4.6-1.3-.9-3 .5-2.5 2z" fill="#FFF"></path>
<defs>
<path id="SVGID_1_" d="M161.8 72.7l9.5 26.1s25.8 9.7 31.1 12.4c10.5 5.2 7.9 15.1 1.1 17.6-5 1.8-18.4-2.9-21.7-5.1 0 0 1.2 4 2.6 10.3-.3-.1-.6-.2-.9-.2-7.4-1.8-14.2 1.1-17.7 7.6-.1.1-.1.2-.2.3-3.3 6.3-3.3 14.8-3.3 20.9 0 .5 0 1.3.1 2.2 0 .6.1 1.6.1 2.7-.1 0-.1-.1-.2-.1-2.8-1.5-5.8-2.1-8.3-2.6-6.2-1-12.3-.3-18.1 2.2-4.5 1.9-8.4 4.9-11.8 8.8-1.6 1.8-3 3.8-4.2 6-.4-1.9-1-3.8-2.1-5.7-1.6-2.8-4.2-5.7-7.5-7.8.8-.5 1.7-1.2 2.5-2 1.1-1.1 2-2.4 2.8-3.8 1.4-2.6 2.2-5.5 2.2-8.2 0-3.2-1.4-6.5-3.8-9.4-.6-.7-1.3-1.5-2.1-2.2-3.4-3.1-9.1-6.3-14.6-5.9-2.6.2-5.1 1-7.3 2.3 3.8-5.9 6.9-12.8 7.8-15.9 0 0-14.2 7.8-19.4 5.2-5.2-2.6-10.5-12.3-.8-17.6 9.7-5.2 20.2-7.8 27.5-11.1 3.1-1.4 0-38.5 0-38.5S93.9-1.2 141.9.8c2.2.1 4.5 0 6.7-.2 13.3-1 55.5-2.8 68.3 15.6 15.2 21.9 1 46.1-10.2 53.9-9.5 6.6-29.2 8.8-42.4.6-1.3-.9-3 .5-2.5 2z"></path>
<path id="SVGID_1_" d="M161.8 72.7l9.5 26.1s25.8 9.7 31.1 12.4c10.5 5.2 7.9 15.1 1.1 17.6-5 1.8-18.4-2.9-21.7-5.1 0 0 1.2 4 2.6 10.3-.3-.1-.6-.2-.9-.2-7.4-1.8-14.2 1.1-17.7 7.6-.1.1-.1.2-.2.3-3.3 6.3-3.3 14.8-3.3 20.9 0 .5 0 1.3.1 2.2 0 .6.1 1.6.1 2.7-.1 0-.1-.1-.2-.1-2.8-1.5-5.8-2.1-8.3-2.6-6.2-1-12.3-.3-18.1 2.2-4.5 1.9-8.4 4.9-11.8 8.8-1.6 1.8-3 3.8-4.2 6-.4-1.9-1-3.8-2.1-5.7-1.6-2.8-4.2-5.7-7.5-7.8.8-.5 1.7-1.2 2.5-2 1.1-1.1 2-2.4 2.8-3.8 1.4-2.6 2.2-5.5 2.2-8.2 0-3.2-1.4-6.5-3.8-9.4-.6-.7-1.3-1.5-2.1-2.2-3.4-3.1-9.1-6.3-14.6-5.9-2.6.2-5.1 1-7.3 2.3 3.8-5.9 6.9-12.8 7.8-15.9 0 0-14.2 7.8-19.4 5.2-5.2-2.6-10.5-12.3-.8-17.6 9.7-5.2 20.2-7.8 27.5-11.1 3.1-1.4 0-38.5 0-38.5S93.9-1.2 141.9.8c2.2.1 4.5 0 6.7-.2 13.3-1 55.5-2.8 68.3 15.6 15.2 21.9 1 46.1-10.2 53.9-9.5 6.6-29.2 8.8-42.4.6-1.3-.9-3 .5-2.5 2z"></path><ellipse id="SVGID_3_" transform="rotate(-16.504 151.5 16.113)" cx="151.5" cy="16.1" rx="2.8" ry="4.7"></ellipse><ellipse id="SVGID_5_" transform="rotate(-16.504 161.303 12.41)" cx="161.3" cy="12.4" rx="2.8" ry="4.7"></ellipse></defs>
<clipPath id="SVGID_2_" fill="#FFF">
<use xlink:href="#SVGID_1_" overflow="visible" fill="#FFF"></use>
</clipPath>
<ellipse transform="rotate(-16.504 151.5 16.113)" class="st3" cx="151.5" cy="16.1" rx="2.8" ry="4.7" fill="#000"></ellipse>
<ellipse transform="rotate(-16.504 161.303 12.41)" class="st3" cx="161.3" cy="12.4" rx="2.8" ry="4.7" fill="#000"></ellipse>
<defs>
<ellipse id="SVGID_3_" transform="rotate(-16.504 151.5 16.113)" cx="151.5" cy="16.1" rx="2.8" ry="4.7"></ellipse>
</defs>
<clipPath id="SVGID_4_" fill="#FFF">
<use xlink:href="#SVGID_3_" overflow="visible" fill="#FFF"></use>
</clipPath>
<ellipse class="st2" transform="rotate(-16.504 152.74 17.857)" cx="152.7" cy="17.9" rx="2.1" ry="3.5" clip-path="url(#SVGID_4_)" fill="#000"></ellipse>
<g fill="#FFF">
<defs>
<ellipse id="SVGID_5_" transform="rotate(-16.504 161.303 12.41)" cx="161.3" cy="12.4" rx="2.8" ry="4.7"></ellipse>
</defs>
<clipPath id="SVGID_6_" fill="#FFF">
<use xlink:href="#SVGID_5_" overflow="visible" fill="#FFF"></use>
</clipPath>
<ellipse class="st2" transform="rotate(-16.504 162.8 13.83)" cx="162.8" cy="13.8" rx="1.9" ry="3.2" clip-path="url(#SVGID_6_)" fill="#000"></ellipse>
</g>
<g fill="#FFF">
<ellipse class="st2" cx="201.9" cy="30.1" rx="1.7" ry="2.8" fill="#000"></ellipse>
<ellipse class="st2" cx="211.7" cy="27.3" rx="1.7" ry="2.8" fill="#000"></ellipse>
</g>
<g fill="#FFF">
<path class="st2" d="M196.8 60c-2 3.8-6.4 5.2-10.4 4.5-3.8-.7-8.3-3-9.5-6.9-.3-1-1.9-.6-1.6.4 1.5 4.6 6.5 7.4 11 8.1 4.6.7 9.7-1 11.9-5.4.5-.8-.9-1.6-1.4-.7z" fill="#000"></path>
</g>
<path class="st4" d="M165.8 141.6c-3.3 6.3-3.3 14.8-3.3 20.9 0 .5 0 1.3.1 2.2 0 .6.1 1.6.1 2.7-.1 0-.1-.1-.2-.1-2.8-1.5-5.8-2.1-8.3-2.6-6.2-1-12.3-.3-18.1 2.2-4.5 1.9-8.4 4.9-11.8 8.8-3.7-3.4-6.7-8-8.5-13.3 1.4-2.6 2.2-5.5 2.2-8.2 0-3.2-1.4-6.5-3.8-9.4 2.1-15.2 13-26.8 26.2-26.8 12.1 0 22.3 9.8 25.5 23.2 0 .2-.1.3-.1.4z" fill-opacity="0.3" fill="#000"></path>
<g fill="#FFF">
<path class="st0" d="M0 217.6c1.5-16.2 3.4-32.5 3.8-48.8.2-7.5.4-15.3 1.1-22.8.3-3.1 1-8.1 4.3-9.6 3.3-1.4 8.8.8 12.1 1.5 6.8 1.5 13.4 6.5 13 14.3-.2 3.9-1.2 7.7-1.5 11.6-.2 3.3 1 5.7 3.8 2.2 4.8-6.1 7.5-14 11.5-20.7 3.3-5.6 6.2-12.4 13.8-11.9 2.9.2 5.7 1.4 8.3 2.6 3.6 1.6 7.9 3.1 11.1 5.4 6.5 4.8.3 13.2-3.4 17.5-5.2 6.1-11.8 12-15.7 19.2-4.6 8.5 4.5 12.5 9 18.4 2.3 3.1 4.2 6.5 6.4 9.7 2.1 3.2 5 6 6.8 9.3 3.4 6.3-2.1 14.6-7.9 17.5-5.4 2.7-15.5 6.7-20.2 1.2-2-2.4-2.7-5.8-3.7-8.7-1.4-4.4-2.9-8.7-4.2-13.1-1.1-3.5-2.2-8.6-5.6-10.6-4.1-2.4-8 0-9.3 4.1-2.5 8.3 2.8 17.9-3 25.4-4.7 6.1-14.4 6.2-21.1 4.1-8-2.4-9.2-10.6-9.2-17.8H0zM99.4 165.9c-6.5.7-12.6-5.5-12.8-11.8-.3-6.4 5.4-11.7 11.5-12.2 5.9-.5 15 6.1 15.1 12.5 0 2.9-1.6 6.4-3.6 8.5-3 3.1-6.4 2.4-10.2 3zm-11.2 27.9c0-5.4-.2-10.9.3-16.2.5-6 6.4-8.1 12-7.8 5.1.3 10.9 4.5 13.3 8.9 2.9 5.1 1.6 10.6 1.3 16.2-.4 6.8.3 13.2 1 20 .5 5.5 1.4 14.3-2 19.2-3.5 5.1-12.7 3.9-17.3 1-5.3-3.3-5.5-11-6.4-16.5-1.4-8.4-1.7-16.5-2.2-24.8z" fill="#FFF"></path>
<path class="st0" d="M194 218c0 3.3.3 6.6-1.3 9.6-2 3.7-7.4 7.5-11.2 9.2-2.1.9-4.5 1.4-6.6.2-1.9-1.1-2.4-3.7-4.2-4.8-4.1-2.6-11.5 4.9-14.9 6.9-5.8 3.4-9.9 3.4-16 .6-4.8-2.2-8.5-5.7-12.2-9.5-15-15.5-9.9-49.9 10.4-58.6 5-2.1 10-2.7 15.3-1.9 2.3.4 4.6.9 6.7 2 1.7.9 4.4 4.8 6.3 3.2 2.1-1.8 1.1-10.2 1.1-12.5 0-5.7 0-13.4 2.7-18.5 6.3-11.8 23.7-3.6 23.8 7.9.3 11.6.1 55.7.1 66.2zm-50.4-15.4c-1.1 5.3 1.3 11.9 6.9 13.1 5.8 1.2 7.9-3.5 8.9-8.2.6-2.9 2.2-6.7 2-9.7-.3-3.3-15.1-8.4-17.8 4.8zM226.4 167.8c7.8-.7 23.2.4 27.5 8.3 2 3.7.7 10-1.8 13.1-2.4 2.9-6.5 4.4-13.1 1.8-10.5-4.2-11.1.5-9.5 2.3 2.5 2.8 8.3 4.5 11.7 5.9 13.6 5.8 12.9 16.3 10.2 25.2-2.9 9.5-12.1 13.1-22.6 12.3-4.6-.4-9.2-1.2-13.8-2.1-4.6-.9-11.2-1.8-14-6.1-2.6-4-1-9 2-12.2 4.5-4.7 8.7-3.4 13.9-.8 1 .5 12.7 5.3 9.7.6-.8-1.2-4.1-2.2-5.4-2.8-2.4-1.1-4.9-1.9-7.3-2.8-10.3-3.8-18.3-15.8-16.3-27 2.8-13.8 17.3-15.7 28.8-15.7z" fill="#FFF"></path>
</g>
</svg>