<svg xmlns="http://www.w3.org/2000/svg" xmlns:xlink="http://www.w3.org/1999/xlink" version="1.1" id="Layer_1" x="0px" y="0px" viewBox="0 0 263 200.9" style="enable-background:new 0 0 263 200.9;" xml:space="preserve" width="263"  height="200.9" >
<style type="text/css">
	.st0{fill:#808080;}
</style>
<g>
	<g>
		<g>
			<path class="st0" d="M40.2,0C40.2,0,40.2,0,40.2,0c-2.5,0-4.8,1-6.6,2.7c-1.8,1.8-2.8,4.2-2.8,6.7v141.1c0,5.2,4.2,9.4,9.4,9.4     c21.9,0.1,58.6,4.6,83.9,31.1V43.4c0-1.8-0.4-3.4-1.3-4.8C102.1,5.1,62.2,0.1,40.2,0z"/>
			<path class="st0" d="M232.2,150.5V9.4c0-2.5-1-4.9-2.8-6.7C227.6,1,225.3,0,222.8,0c0,0,0,0,0,0c-22,0.1-61.9,5.1-82.7,38.6     c-0.8,1.4-1.3,3-1.3,4.8v147.7c25.3-26.5,62-31.1,83.9-31.1C227.9,159.9,232.2,155.7,232.2,150.5z"/>
			<path class="st0" d="M253.6,32.5h-6.8v118c0,13.2-10.8,24-24,24c-18.6,0-49.2,3.7-70.9,24.2c37.5-9.2,77.1-3.2,99.6,1.9     c2.8,0.6,5.7,0,8-1.8c2.2-1.8,3.5-4.5,3.5-7.4V42C263,36.8,258.8,32.5,253.6,32.5z"/>
			<path class="st0" d="M16.2,150.5v-118H9.4C4.2,32.5,0,36.8,0,42v149.6c0,2.9,1.3,5.6,3.5,7.4c2.3,1.8,5.2,2.5,8,1.8     c22.5-5.1,62.1-11.1,99.6-1.9c-21.7-20.5-52.3-24.2-70.9-24.2C27,174.5,16.2,163.7,16.2,150.5z"/>
		</g>
	</g>
</g>
</svg>